<?xml version="1.0" encoding="iso-8859-1"?>
<!-- Generator: Adobe Illustrator 19.0.0, SVG Export Plug-In . SVG Version: 6.00 Build 0)  -->
<svg version="1.1" id="Layer_1" xmlns="http://www.w3.org/2000/svg" xmlns:xlink="http://www.w3.org/1999/xlink" x="0px" y="0px"
	 viewBox="0 0 512 512" style="enable-background:new 0 0 512 512;" xml:space="preserve">
<polygon style="fill:#10BAFC;" points="355.704,233.52 256,501.588 501.12,233.52 "/>
<g>
	<polygon style="fill:#0084FF;" points="112.31,122.955 10.88,233.52 156.297,233.52 	"/>
	<polygon style="fill:#0084FF;" points="355.704,233.52 501.12,233.52 399.692,122.955 	"/>
	<polygon style="fill:#0084FF;" points="355.704,233.52 256.001,122.955 156.297,233.52 	"/>
</g>
<g>
	<polygon style="fill:#10BAFC;" points="256.001,122.955 112.31,122.955 156.297,233.52 	"/>
	<polygon style="fill:#10BAFC;" points="399.692,122.955 256.001,122.955 355.704,233.52 	"/>
</g>
<polygon style="fill:#0084FF;" points="156.297,233.52 256,501.588 355.704,233.52 "/>
<polygon style="fill:#10BAFC;" points="10.88,233.52 256,501.588 156.297,233.52 "/>
<path d="M256,281.385c-5.761,0-10.431-4.67-10.431-10.431v-4.67c0-5.761,4.67-10.431,10.431-10.431
	c5.76,0,10.431,4.67,10.431,10.431v4.67C266.431,276.714,261.761,281.385,256,281.385z"/>
<path d="M256,416.443c-5.761,0-10.431-4.67-10.431-10.431V304.698c0-5.761,4.67-10.431,10.431-10.431
	c5.76,0,10.431,4.67,10.431,10.431v101.314C266.431,411.773,261.761,416.443,256,416.443z"/>
<path d="M256,82.751c-5.761,0-10.431-4.67-10.431-10.431V10.431C245.569,4.67,250.239,0,256,0c5.76,0,10.431,4.67,10.431,10.431
	V72.32C266.431,78.081,261.761,82.751,256,82.751z"/>
<path d="M344.764,101.759c-2.669,0-5.338-1.018-7.376-3.055c-4.073-4.073-4.073-10.678,0-14.752l44.749-44.749
	c4.074-4.073,10.677-4.073,14.752,0c4.073,4.073,4.073,10.678,0,14.752l-44.75,44.749
	C350.102,100.74,347.433,101.759,344.764,101.759z"/>
<path d="M167.236,101.759c-2.67,0-5.338-1.018-7.376-3.055l-44.749-44.749c-4.073-4.073-4.073-10.678,0-14.752
	c4.074-4.073,10.677-4.073,14.752,0l44.749,44.749c4.073,4.073,4.073,10.678,0,14.752
	C172.576,100.74,169.907,101.759,167.236,101.759z"/>
<path d="M508.807,226.469L407.378,115.904c-0.078-0.084-0.151-0.152-0.221-0.205c-1.945-2.002-4.623-3.174-7.465-3.174H112.31
	c-0.055,0-0.096,0.019-0.149,0.022c-2.841,0.041-5.578,1.221-7.538,3.358L3.192,226.469c-3.785,4.127-3.338,10.47-0.011,14.09
	l245.12,268.068c3.996,4.286,11.095,4.704,15.396,0l245.12-268.068C512.144,236.937,512.595,230.6,508.807,226.469z
	 M403.239,142.253l74.158,80.837H371.079L403.239,142.253z M171.305,243.951h169.39L256,471.666L171.305,243.951z M384.316,133.386
	l-32.101,80.688l-72.762-80.688C279.452,133.386,384.316,133.386,384.316,133.386z M332.252,223.09H179.749l76.252-84.558
	L332.252,223.09z M232.55,133.386l-72.763,80.688l-32.1-80.688C127.686,133.386,232.55,133.386,232.55,133.386z M108.761,142.253
	l32.16,80.837H34.603L108.761,142.253z M34.551,243.951h114.496l78.503,211.067L34.551,243.951z M284.45,455.017l78.503-211.067
	h114.496L284.45,455.017z"/>
<g>
</g>
<g>
</g>
<g>
</g>
<g>
</g>
<g>
</g>
<g>
</g>
<g>
</g>
<g>
</g>
<g>
</g>
<g>
</g>
<g>
</g>
<g>
</g>
<g>
</g>
<g>
</g>
<g>
</g>
</svg>
